<svg width="37" height="24" viewBox="0 0 37 24" fill="none" xmlns="http://www.w3.org/2000/svg">
<g clip-path="url(#clip0_3607_246)">
<path d="M31.2475 18.5736C30.6019 17.9384 30.106 16.8059 29.8688 15.4247C29.6315 14.0435 29.6723 12.5264 29.9821 11.2065L28.2811 9.5338C27.8253 11.4926 27.7159 13.7137 27.9716 15.8187C28.2274 17.9238 28.8324 19.7826 29.6838 21.0789C30.5351 22.3751 31.5801 23.0285 32.6408 22.9278C33.7015 22.827 34.7123 21.9785 35.5012 20.5266L34.2292 17.6794C33.8318 18.4163 33.3361 18.8948 32.8051 19.054C32.274 19.2133 31.7318 19.046 31.2475 18.5736V18.5736ZM9.14754 18.8361V13.5955C9.14754 11.7477 8.87929 9.9415 8.37672 8.40517C7.87415 6.86884 7.15982 5.67141 6.32407 4.96432C5.48833 4.25722 4.5687 4.07221 3.68147 4.43269C2.79425 4.79316 1.97928 5.68293 1.33963 6.98947C0.699975 8.29602 0.264366 9.96065 0.0878857 11.7729C-0.0885941 13.5851 0.00198172 15.4635 0.348159 17.1706C0.694337 18.8777 1.28057 20.3368 2.03272 21.3633C2.78487 22.3898 3.66916 22.9378 4.57377 22.9378C5.28286 22.9379 5.98225 22.6014 6.61672 21.9546L5.88056 18.4401C5.46839 18.9056 5.00386 19.1433 4.53293 19.1295C4.06199 19.1158 3.60097 18.8511 3.19549 18.3617C2.79 17.8723 2.4541 17.1752 2.22101 16.3392C1.98793 15.5033 1.86574 14.5575 1.86653 13.5955C1.86407 12.6917 1.97107 11.8007 2.17799 11.0019C2.36011 10.3047 2.61311 9.69519 2.92 9.21412C3.2269 8.73304 3.5806 8.39154 3.9574 8.21253C4.15724 8.11586 4.36187 8.06659 4.56724 8.06572C5.28602 8.06454 5.97562 8.64633 6.48449 9.68324C6.99336 10.7201 7.27985 12.1273 7.281 13.5955V18.7916C7.2702 19.5758 7.37244 20.3493 7.57503 21.0159C7.7577 21.5862 8.01817 22.0348 8.32426 22.306L9.18239 23L9.90983 19.4411L9.14754 18.8361Z" fill="white"/>
<path d="M20.8325 17.5413C20.4 18.4109 19.8359 18.9556 19.2323 19.0864C18.6288 19.2173 18.0213 18.9267 17.5089 18.262L16.5005 21.5318C17.3742 22.6595 18.4087 23.1518 19.4364 22.9289C20.4642 22.7061 21.425 21.7812 22.1633 20.3039L20.8325 17.5413ZM19.0161 4.22182C18.1832 4.19479 17.3625 4.63109 16.6417 5.48399C15.9209 6.33688 15.3273 7.57423 14.9245 9.06349C14.5217 10.5527 14.3248 12.2378 14.355 13.9381C14.3851 15.6384 14.6412 17.2899 15.0957 18.7157L23.4113 11.4554C23.1773 9.42256 22.6179 7.60726 21.8218 6.29702C21.0257 4.98678 20.0383 4.2565 19.0161 4.22182V4.22182ZM16.261 14.178C16.1981 13.0031 16.3218 11.818 16.6138 10.7976C16.9058 9.77714 17.3506 8.97547 17.8827 8.51084C18.4148 8.04621 19.0059 7.94323 19.5688 8.2171C20.1317 8.49097 20.6366 9.12717 21.009 10.0318L16.261 14.178ZM26.0227 0V18.1018L27.5603 19.4053L26.8351 22.9642L25.3105 21.6741C25.0035 21.4058 24.7426 20.9566 24.5613 20.384C24.3587 19.7174 24.2564 18.9439 24.2672 18.1596V0H26.0227ZM12.6324 0V18.1018L14.157 19.4053L13.4318 22.9642L11.9072 21.6741C11.6105 21.4037 11.3585 20.9633 11.1819 20.4062C10.9785 19.7401 10.8755 18.9666 10.8857 18.1819V0H12.6324Z" fill="white"/>
<path d="M33.5889 8.62172C33.9084 8.9365 34.1945 9.37678 34.4307 9.91741C34.6669 10.458 34.8486 11.0884 34.9655 11.7726C35.0825 12.4567 35.1322 13.1812 35.112 13.9046C35.0918 14.628 35.002 15.3362 34.8478 15.9888L36.5488 17.657C37.0092 15.6956 37.1215 13.4683 36.8665 11.3564C36.6114 9.24449 36.0048 7.37937 35.1506 6.08038C34.2964 4.7814 33.2477 4.12935 32.1841 4.23587C31.1204 4.34239 30.108 5.20086 29.3201 6.66429L30.592 9.51591C30.9904 8.77156 31.489 8.28846 32.0233 8.12905C32.5575 7.96964 33.1029 8.14126 33.5889 8.62172Z" fill="#C7D540"/>
</g>
<defs>
<clipPath id="clip0_3607_246">
<rect width="37" height="23" fill="white" transform="translate(0 0.191406)"/>
</clipPath>
</defs>
</svg>
