<svg width="40" height="25" viewBox="0 0 40 25" fill="none" xmlns="http://www.w3.org/2000/svg">
<path d="M1.15441 20.0247C0.988986 19.6636 0.768418 19.0868 0.632185 18.6597C-0.16251 16.1589 -0.19819 13.5699 0.470002 11.0867C1.20631 8.36122 2.61405 6.27862 4.43374 5.2131C6.72052 3.87901 9.24732 4.13878 11.44 5.90437C12.8316 6.9875 13.8176 8.66062 14.5669 11.0294C14.661 11.3332 14.7453 11.6546 14.8296 11.932L1.15441 20.0247ZM5.72147 9.23301C4.0964 10.1796 3.25954 12.249 3.4347 14.6707L10.3112 10.6508C9.12731 8.76629 7.58982 8.14107 5.72147 9.23301ZM11.1676 17.9773C11.1643 17.9773 11.1643 17.9817 11.1643 17.9817L11.0216 17.8496C10.6097 18.7522 9.97066 19.4875 9.16299 19.963C7.6255 20.87 6.20153 20.6367 5.17654 19.417L5.08247 19.6108C5.08247 19.6108 5.08247 19.6064 5.07923 19.6064L3.33414 23.1508C3.76879 23.5602 4.23264 23.9037 4.71918 24.1811C6.64591 25.2686 8.61805 25.2157 10.561 24.071C11.9655 23.2432 13.0683 21.984 13.8209 20.3857L11.1676 17.9773ZM19.6075 0V19.6988L21.8651 20.9405L20.5839 25L18.0928 23.5911C17.5348 23.2608 17.1521 22.7589 16.8667 22.1909C16.5909 21.6141 16.3866 20.8172 16.3866 19.7517V0H19.6075ZM25.4526 14.6839C25.4526 13.0063 26.0008 11.5005 26.8636 10.479L24.5476 6.97429C22.9777 8.85875 21.9884 11.6106 21.9884 14.6751C21.9851 17.7439 22.9745 20.5002 24.5411 22.3846L26.8539 18.8799C25.9943 17.854 25.4526 16.357 25.4526 14.6839ZM29.5656 20.2712C29.1114 20.2712 28.6703 20.1656 28.2616 19.9806L27.1555 24.4408C27.9113 24.7843 28.719 24.9736 29.5623 24.9736C33.2276 24.978 36.2864 21.4468 36.9968 16.7577L33.5974 15.8154C33.2114 18.3647 31.5539 20.2756 29.5656 20.2712ZM29.5753 4.39415C28.7352 4.39415 27.9275 4.57908 27.1717 4.91811L28.2681 9.38271C28.68 9.19778 29.1179 9.09651 29.572 9.09651C31.5636 9.10092 33.2244 11.0206 33.6007 13.5743L37 12.6409C36.3026 7.94294 33.2438 4.39856 29.5753 4.39415Z" fill="#E9D2D2"/>
</svg>

